<?xml version="1.0" encoding="utf-8"?>
<!-- Generator: Adobe Illustrator 28.1.0, SVG Export Plug-In . SVG Version: 6.00 Build 0)  -->
<svg version="1.1" id="Layer_1" xmlns="http://www.w3.org/2000/svg" xmlns:xlink="http://www.w3.org/1999/xlink" x="0px" y="0px"
	 viewBox="0 0 358.97 372.28" style="enable-background:new 0 0 358.97 372.28;" xml:space="preserve">
<style type="text/css">
	.st0{fill:#0176B5;}
	.st1{fill:#F26A21;}
	.st2{fill:#2798D4;}
	.st3{fill:#184171;}
</style>
<g>
	<g>
		<path class="st0" d="M319.2,275.19L319.2,275.19L319.2,275.19c-11.18,16.63-25.44,31.09-42.25,42.67
			c-26.89,18.52-58.45,28.3-91.27,28.3c-87.98,0-159.55-71.78-159.55-160.02c0-88.23,71.58-160.02,159.55-160.02
			c32.82,0,64.38,9.79,91.27,28.3c17.17,11.82,31.68,26.66,42.95,43.74l24.61-10.09c-13.48-21.69-31.35-40.44-52.74-55.17
			C260.5,11.38,223.81,0,185.68,0c-49.77,0-96.47,19.39-131.5,54.6C19.24,89.72,0,136.44,0,186.14s19.24,96.42,54.18,131.54
			c35.03,35.21,81.73,54.6,131.5,54.6c38.13,0,74.82-11.38,106.09-32.91c21.04-14.48,38.66-32.86,52.06-54.09L319.2,275.19z"/>
		<path class="st1" d="M358.97,117.52"/>
		<path class="st2" d="M241.11,243.16c-14.33,13.51-33.31,21.22-53.59,21.22c-43.16,0-78.27-35.11-78.27-78.27
			c0-43.16,35.11-78.27,78.27-78.27c20.77,0,40.18,8.09,54.62,22.22l58.24-23.88c-9.3-13.13-20.85-24.6-34.32-33.91
			c-23.15-16-50.31-24.46-78.54-24.46c-76.26,0-138.3,62.04-138.3,138.29s62.04,138.29,138.3,138.29c28.24,0,55.39-8.46,78.54-24.45
			c13.09-9.04,24.38-20.14,33.54-32.81L241.11,243.16z"/>
		<path class="st0" d="M241.11,243.16c-14.33,13.51-33.31,21.22-53.59,21.22c-43.16,0-78.27-35.11-78.27-78.27
			c0-17.23,5.59-33.17,15.06-46.11l-49.72-33.64c-15.97,22.55-25.37,50.07-25.37,79.75c0,76.26,62.04,138.29,138.3,138.29
			c28.24,0,55.39-8.46,78.54-24.45c13.09-9.04,24.37-20.14,33.53-32.81L241.11,243.16z"/>
		<path class="st2" d="M319.91,98.17l24.61-10.09c-13.48-21.69-31.35-40.44-52.74-55.17C260.5,11.38,223.81,0,185.68,0
			c-49.77,0-96.47,19.39-131.5,54.6c-7.77,7.81-14.77,16.2-20.95,25.07L55.1,94.28C84,53.09,131.76,26.12,185.68,26.12
			c32.82,0,64.38,9.79,91.27,28.3C294.12,66.25,308.63,81.09,319.91,98.17z"/>
		<path class="st3" d="M319.2,275.19c-11.18,16.63-25.44,31.09-42.25,42.67c-26.89,18.52-58.45,28.3-91.27,28.3
			c-18.25,0-35.8-3.09-52.15-8.78l-7.16,25.29c18.85,6.32,38.82,9.61,59.31,9.61c38.13,0,74.82-11.38,106.09-32.91
			c21.04-14.48,38.66-32.86,52.06-54.09L319.2,275.19z"/>
		<path class="st3" d="M241.11,243.16c-14.33,13.51-33.31,21.22-53.59,21.22c-10.21,0-19.97-1.97-28.92-5.54l-17.43,57.57
			c14.5,5.17,30.1,7.99,46.36,7.99c28.24,0,55.39-8.46,78.54-24.45c13.09-9.04,24.37-20.14,33.53-32.81L241.11,243.16z"/>
	</g>
</g>
</svg>
