<?xml version="1.0" encoding="utf-8"?>
<!-- Generator: Adobe Illustrator 28.1.0, SVG Export Plug-In . SVG Version: 6.00 Build 0)  -->
<svg version="1.1" id="Layer_1" xmlns="http://www.w3.org/2000/svg" xmlns:xlink="http://www.w3.org/1999/xlink" x="0px" y="0px"
	 viewBox="0 0 496.32 135.76" style="enable-background:new 0 0 496.32 135.76;" xml:space="preserve">
<style type="text/css">
	.st0{fill:#003F72;}
	.st1{fill:#0076B5;}
	.st2{fill:#F3681C;}
	.st3{fill:#009AE2;}
</style>
<g>
	<g>
		<path class="st0" d="M179.62,79.16c-0.51,7.06-3.12,12.62-7.82,16.68c-4.7,4.06-10.9,6.08-18.6,6.08c-8.42,0-15.03-2.83-19.86-8.5
			c-4.82-5.66-7.23-13.44-7.23-23.33v-4.01c0-6.31,1.11-11.87,3.34-16.68c2.22-4.81,5.4-8.5,9.53-11.07
			c4.13-2.57,8.93-3.85,14.4-3.85c7.57,0,13.67,2.03,18.3,6.09c4.63,4.06,7.3,9.75,8.02,17.09h-13.53
			c-0.33-4.24-1.51-7.31-3.54-9.22c-2.03-1.91-5.12-2.86-9.26-2.86c-4.51,0-7.88,1.61-10.12,4.85c-2.24,3.23-3.39,8.24-3.45,15.03
			v4.96c0,7.09,1.07,12.28,3.22,15.55c2.15,3.28,5.54,4.91,10.16,4.91c4.18,0,7.3-0.95,9.36-2.86c2.06-1.91,3.24-4.86,3.54-8.86
			H179.62z"/>
		<path class="st0" d="M185.62,76.19c0-4.84,0.93-9.15,2.8-12.94c1.86-3.79,4.55-6.72,8.05-8.79c3.5-2.07,7.56-3.11,12.19-3.11
			c6.58,0,11.95,2.01,16.12,6.04c4.16,4.03,6.48,9.5,6.96,16.41l0.09,3.34c0,7.48-2.09,13.49-6.27,18.01
			c-4.18,4.52-9.78,6.78-16.81,6.78c-7.03,0-12.64-2.25-16.84-6.76c-4.19-4.51-6.29-10.64-6.29-18.39V76.19z M198.65,77.11
			c0,4.64,0.87,8.18,2.62,10.63c1.74,2.45,4.24,3.68,7.48,3.68c3.16,0,5.62-1.21,7.4-3.64c1.77-2.42,2.66-6.3,2.66-11.62
			c0-4.54-0.89-8.07-2.66-10.56c-1.78-2.5-4.27-3.75-7.48-3.75c-3.19,0-5.65,1.24-7.39,3.73C199.52,68.06,198.65,71.91,198.65,77.11
			z"/>
		<path class="st0" d="M266.27,101.03c-0.6-1.17-1.04-2.63-1.3-4.37c-3.16,3.51-7.26,5.27-12.31,5.27c-4.78,0-8.74-1.38-11.88-4.15
			c-3.14-2.77-4.71-6.25-4.71-10.46c0-5.17,1.91-9.13,5.75-11.9c3.83-2.77,9.37-4.16,16.61-4.19h5.99v-2.8
			c0-2.26-0.58-4.06-1.74-5.41c-1.16-1.35-2.98-2.03-5.47-2.03c-2.2,0-3.92,0.53-5.16,1.58c-1.25,1.05-1.87,2.5-1.87,4.33h-13.03
			c0-2.82,0.87-5.44,2.62-7.85c1.74-2.4,4.21-4.29,7.39-5.66c3.19-1.37,6.76-2.05,10.73-2.05c6.01,0,10.78,1.51,14.31,4.53
			c3.53,3.02,5.3,7.27,5.3,12.73v21.14c0.03,4.63,0.68,8.13,1.94,10.51v0.77H266.27z M255.5,91.97c1.92,0,3.7-0.43,5.32-1.28
			s2.82-2.01,3.61-3.45v-8.39h-4.87c-6.52,0-9.99,2.26-10.41,6.76l-0.05,0.77c0,1.62,0.57,2.96,1.72,4.01
			C251.95,91.44,253.51,91.97,255.5,91.97z"/>
		<path class="st0" d="M299.4,101.03h-13.07V31.78h13.07V101.03z"/>
		<path class="st0" d="M330.74,101.93c-7.15,0-12.98-2.19-17.47-6.58c-4.49-4.39-6.74-10.23-6.74-17.54v-1.26
			c0-4.9,0.95-9.28,2.84-13.14c1.89-3.86,4.57-6.84,8.04-8.93s7.43-3.13,11.88-3.13c6.67,0,11.92,2.1,15.75,6.31
			c3.83,4.21,5.75,10.17,5.75,17.89v5.32h-31.06c0.42,3.19,1.69,5.74,3.81,7.66c2.12,1.92,4.8,2.88,8.05,2.88
			c5.02,0,8.94-1.82,11.77-5.45l6.4,7.17c-1.95,2.77-4.6,4.92-7.94,6.47S334.79,101.93,330.74,101.93z M329.25,61.85
			c-2.58,0-4.68,0.88-6.29,2.63c-1.61,1.75-2.64,4.26-3.09,7.52h18.12v-1.04c-0.06-2.9-0.84-5.14-2.34-6.72
			C334.14,62.65,332.01,61.85,329.25,61.85z"/>
		<path class="st0" d="M384.61,87.55c0-1.59-0.79-2.85-2.36-3.76c-1.58-0.92-4.11-1.74-7.6-2.46c-11.6-2.43-17.4-7.37-17.4-14.79
			c0-4.33,1.8-7.94,5.39-10.84c3.59-2.9,8.29-4.35,14.09-4.35c6.19,0,11.14,1.46,14.85,4.37c3.71,2.91,5.57,6.7,5.57,11.36h-13.03
			c0-1.86-0.6-3.4-1.8-4.62c-1.2-1.22-3.08-1.82-5.63-1.82c-2.2,0-3.89,0.5-5.09,1.49c-1.2,0.99-1.8,2.26-1.8,3.79
			c0,1.44,0.68,2.61,2.05,3.49c1.37,0.89,3.68,1.66,6.92,2.3c3.25,0.65,5.98,1.37,8.2,2.19c6.88,2.52,10.32,6.9,10.32,13.12
			c0,4.45-1.91,8.04-5.72,10.8c-3.82,2.75-8.75,4.12-14.79,4.12c-4.09,0-7.72-0.73-10.89-2.19c-3.17-1.46-5.66-3.45-7.46-5.99
			c-1.8-2.54-2.71-5.28-2.71-8.23h12.35c0.12,2.31,0.98,4.09,2.57,5.32s3.73,1.85,6.4,1.85c2.49,0,4.38-0.47,5.66-1.42
			C383.97,90.32,384.61,89.08,384.61,87.55z"/>
		<path class="st0" d="M425.95,91.43c2.4,0,4.36-0.66,5.86-1.98c1.5-1.32,2.28-3.08,2.34-5.28h12.21c-0.03,3.31-0.93,6.34-2.7,9.08
			c-1.78,2.75-4.2,4.88-7.28,6.4c-3.08,1.52-6.48,2.28-10.21,2.28c-6.97,0-12.47-2.22-16.5-6.65c-4.03-4.43-6.04-10.56-6.04-18.37
			v-0.86c0-7.51,2-13.51,6-17.99s9.48-6.72,16.45-6.72c6.1,0,10.99,1.74,14.67,5.21c3.68,3.47,5.55,8.09,5.61,13.86h-12.21
			c-0.06-2.54-0.84-4.6-2.34-6.19c-1.5-1.59-3.49-2.38-5.95-2.38c-3.04,0-5.33,1.11-6.88,3.32c-1.55,2.21-2.32,5.8-2.32,10.77v1.35
			c0,5.03,0.77,8.64,2.3,10.84C420.49,90.33,422.82,91.43,425.95,91.43z"/>
		<path class="st0" d="M476.26,101.93c-7.15,0-12.98-2.19-17.47-6.58c-4.49-4.39-6.74-10.23-6.74-17.54v-1.26
			c0-4.9,0.95-9.28,2.84-13.14c1.89-3.86,4.57-6.84,8.04-8.93s7.43-3.13,11.88-3.13c6.67,0,11.92,2.1,15.75,6.31
			c3.83,4.21,5.75,10.17,5.75,17.89v5.32h-31.06c0.42,3.19,1.69,5.74,3.81,7.66c2.12,1.92,4.8,2.88,8.05,2.88
			c5.02,0,8.94-1.82,11.77-5.45l6.4,7.17c-1.95,2.77-4.6,4.92-7.94,6.47S480.31,101.93,476.26,101.93z M474.77,61.85
			c-2.58,0-4.68,0.88-6.29,2.63c-1.61,1.75-2.64,4.26-3.09,7.52h18.12v-1.04c-0.06-2.9-0.84-5.14-2.34-6.72
			C479.66,62.65,477.53,61.85,474.77,61.85z"/>
	</g>
	<g>
		<g>
			<path class="st1" d="M116.4,100.35L116.4,100.35L116.4,100.35c-4.08,6.06-9.28,11.34-15.41,15.56
				c-9.81,6.75-21.32,10.32-33.28,10.32c-32.08,0-58.18-26.18-58.18-58.35c0-32.18,26.1-58.35,58.18-58.35
				c11.97,0,23.48,3.57,33.28,10.32c6.26,4.31,11.55,9.72,15.66,15.95l8.97-3.68C120.72,24.21,114.2,17.37,106.4,12
				C95,4.15,81.62,0,67.71,0C49.56,0,32.53,7.07,19.76,19.91C7.02,32.72,0,49.75,0,67.88s7.02,35.16,19.76,47.97
				c12.77,12.84,29.8,19.91,47.95,19.91c13.91,0,27.28-4.15,38.69-12c7.67-5.28,14.1-11.98,18.98-19.72L116.4,100.35z"/>
		</g>
		<g>
			<path class="st2" d="M130.91,42.85"/>
		</g>
		<g>
			<path class="st3" d="M87.93,88.67c-5.22,4.93-12.15,7.74-19.54,7.74c-15.74,0-28.54-12.8-28.54-28.54
				c0-15.74,12.8-28.54,28.54-28.54c7.57,0,14.65,2.95,19.92,8.1l21.24-8.71c-3.39-4.79-7.61-8.97-12.51-12.36
				c-8.44-5.83-18.34-8.92-28.64-8.92c-27.81,0-50.43,22.62-50.43,50.43s22.62,50.43,50.43,50.43c10.3,0,20.2-3.08,28.64-8.92
				c4.77-3.3,8.89-7.34,12.23-11.96L87.93,88.67z"/>
		</g>
		<g>
			<path class="st1" d="M87.93,88.67c-5.22,4.93-12.15,7.74-19.54,7.74c-15.74,0-28.54-12.8-28.54-28.54
				c0-6.28,2.04-12.1,5.49-16.82L27.2,38.79c-5.82,8.22-9.25,18.26-9.25,29.08c0,27.81,22.62,50.43,50.43,50.43
				c10.3,0,20.2-3.08,28.64-8.92c4.77-3.3,8.89-7.34,12.23-11.96L87.93,88.67z"/>
		</g>
		<g>
			<path class="st3" d="M116.66,35.8l8.97-3.68C120.72,24.21,114.2,17.37,106.4,12C95,4.15,81.62,0,67.71,0
				C49.56,0,32.53,7.07,19.76,19.91c-2.83,2.85-5.39,5.91-7.64,9.14l7.98,5.33C30.63,19.36,48.05,9.53,67.71,9.53
				c11.97,0,23.48,3.57,33.28,10.32C107.26,24.16,112.55,29.57,116.66,35.8z"/>
		</g>
		<g>
			<path class="st0" d="M116.4,100.35c-4.08,6.06-9.28,11.34-15.41,15.56c-9.81,6.75-21.32,10.32-33.28,10.32
				c-6.66,0-13.05-1.13-19.02-3.2l-2.61,9.22c6.87,2.31,14.16,3.5,21.63,3.5c13.91,0,27.28-4.15,38.69-12
				c7.67-5.28,14.1-11.98,18.98-19.72L116.4,100.35z"/>
		</g>
		<g>
			<path class="st0" d="M87.93,88.67c-5.22,4.93-12.15,7.74-19.54,7.74c-3.72,0-7.28-0.72-10.55-2.02l-6.36,21
				c5.29,1.89,10.98,2.91,16.9,2.91c10.3,0,20.2-3.08,28.64-8.92c4.77-3.3,8.89-7.34,12.23-11.96L87.93,88.67z"/>
		</g>
	</g>
</g>
</svg>
