<?xml version="1.0" encoding="utf-8"?>
<!-- Generator: Adobe Illustrator 13.0.2, SVG Export Plug-In . SVG Version: 6.00 Build 14948)  -->
<!DOCTYPE svg PUBLIC "-//W3C//DTD SVG 1.1//EN" "http://www.w3.org/Graphics/SVG/1.1/DTD/svg11.dtd">
<svg version="1.1" id="Layer_1" xmlns="http://www.w3.org/2000/svg" xmlns:xlink="http://www.w3.org/1999/xlink" x="0px" y="0px"
	 width="365.067px" height="77.345px" viewBox="0 0 365.067 77.345" enable-background="new 0 0 365.067 77.345"
	 xml:space="preserve">
<path fill="#1F70B9" d="M24.611,7.251v2.417c-3.088,0-5.228,0.793-6.418,2.379c-1.19,1.587-1.786,4.413-1.786,8.479v42.411
	c0,4.054,0.596,6.864,1.786,8.431c1.19,1.567,3.33,2.352,6.418,2.352v2.417H0v-2.417c2.71,0,4.559-0.774,5.548-2.322
	c0.989-1.549,1.484-4.369,1.484-8.46V20.526c0-4.179-0.486-7.034-1.456-8.563C4.605,10.433,2.747,9.668,0,9.668V7.251H24.611"/>
<path fill="#1F70B9" d="M37.503,32.63v8.969c4.895-5.979,9.943-8.969,15.144-8.969c4.041,0,7.41,1.378,10.108,4.135
	c2.698,2.757,4.047,6.395,4.047,10.916V66.6c0,2.896,0.476,4.806,1.428,5.73c0.953,0.926,2.82,1.389,5.604,1.389v2.417H51.566
	v-2.417c2.698,0,4.545-0.353,5.54-1.058s1.492-2.064,1.492-4.079v-21.64c0-2.895-0.87-5.199-2.609-6.911
	c-1.74-1.712-3.965-2.568-6.675-2.568c-3.894,0-7.832,2.795-11.811,8.384v20.016c0,3.386,0.451,5.542,1.355,6.467
	c0.903,0.926,2.795,1.389,5.676,1.389v2.417H22.267v-2.417c3.211,0,5.185-0.508,5.924-1.521c0.738-1.013,1.108-3.163,1.108-6.448
	V42.335c0-2.479-0.446-4.114-1.337-4.899c-0.891-0.787-2.79-1.181-5.695-1.181v-2.417l13.185-1.208H37.503"/>
<path fill="#1F70B9" d="M84.381,19.336h2.344v14.502h14.064v2.417H86.725v28.268c0,2.946,0.644,5.215,1.932,6.807
	c1.288,1.594,3.122,2.39,5.503,2.39c2.808,0,5.365-1.208,7.673-3.625l1.3,1.32c-3.638,3.953-7.838,5.931-12.599,5.931
	c-3.565,0-6.458-1.159-8.68-3.476c-2.222-2.315-3.333-5.306-3.333-8.969V36.255h-8.203v-2.001
	C76.153,31.409,80.841,26.436,84.381,19.336"/>
<path fill="#1F70B9" d="M110.164,48.34h22.268v-0.83c0-3.815-1.044-6.846-3.131-9.092c-2.088-2.248-4.688-3.371-7.801-3.371
	c-3.309,0-5.97,1.18-7.984,3.54C111.501,40.948,110.384,44.199,110.164,48.34 M141.808,65.26v3.059
	c-2.539,3.247-5.128,5.564-7.765,6.949c-2.636,1.384-5.804,2.077-9.504,2.077c-6.543,0-11.942-2.068-16.197-6.203
	c-4.254-4.136-6.381-9.382-6.381-15.739c0-6.408,2.005-11.805,6.015-16.192c4.011-4.388,8.927-6.581,14.751-6.581
	c4.785,0,8.966,1.696,12.543,5.089c3.577,3.392,5.366,7.437,5.366,12.132v0.906h-30.472v0.566c0,4.507,0.705,8.425,2.116,11.755
	c1.41,3.329,3.47,5.936,6.18,7.817s5.536,2.823,8.478,2.823c2.747,0,5.1-0.552,7.06-1.652
	C135.957,70.965,138.56,68.696,141.808,65.26z"/>
<path fill="#1F70B9" d="M164.075,73.719h1.172v2.417h-24.612v-2.417h2.29c2.295,0,3.854-0.57,4.678-1.709
	c0.824-1.14,1.236-3.258,1.236-6.354V9.442c0-2.191-0.415-3.708-1.245-4.551c-0.83-0.844-2.264-1.265-4.303-1.265h-2.656V1.209
	L155.084,0h1.959v67.713c0,2.317,0.498,3.897,1.493,4.74C159.531,73.296,161.377,73.719,164.075,73.719"/>
<path fill="#1F70B9" d="M186.342,73.719h1.172v2.417h-24.611v-2.417h2.289c2.295,0,3.854-0.57,4.678-1.709
	c0.825-1.14,1.237-3.258,1.237-6.354V9.442c0-2.191-0.416-3.708-1.246-4.551c-0.83-0.844-2.264-1.265-4.303-1.265h-2.655V1.209
	L177.351,0h1.959v67.713c0,2.317,0.498,3.897,1.493,4.74C181.798,73.296,183.644,73.719,186.342,73.719"/>
<path fill="#1F70B9" d="M197.549,9.668c1.123,0,2.074,0.52,2.856,1.558c0.781,1.039,1.172,2.313,1.172,3.824
	c0,1.498-0.396,2.788-1.19,3.871c-0.793,1.083-1.739,1.624-2.838,1.624c-1.136,0-2.115-0.541-2.939-1.624s-1.236-2.373-1.236-3.871
	c0-1.511,0.406-2.785,1.218-3.824C195.403,10.188,196.389,9.668,197.549,9.668 M199.49,32.63h2.088v35.311
	c0,2.304,0.589,3.843,1.768,4.617c1.178,0.773,3.322,1.161,6.436,1.161v2.417h-24.61v-2.417c3.467,0,5.7-0.371,6.701-1.114
	s1.502-2.285,1.502-4.626v-25.53c0-2.518-0.458-4.179-1.374-4.985c-0.915-0.806-3.191-1.209-6.829-1.209v-2.417L199.49,32.63z"/>
<path fill="#FFFFFF" d="M252.393,9.668h-9.797V63.05c0,4.191,0.559,7.018,1.676,8.479c1.117,1.46,3.293,2.19,6.528,2.19v2.417
	h-25.783v-2.417c3.186,0,5.35-0.841,6.491-2.521c1.142-1.68,1.713-4.516,1.713-8.506V9.668h-9.725c-4.65,0-8.032,0.749-10.145,2.247
	s-3.302,3.972-3.571,7.421h-2.344V4.834h2.344c1.808,1.612,5.183,2.417,10.127,2.417h35.415c5.104,0,8.674-0.805,10.713-2.417h2.345
	v14.502h-2.345c-0.806-3.726-2.246-6.269-4.321-7.628C259.639,10.348,256.532,9.668,252.393,9.668"/>
<path fill="#FFFFFF" d="M263.106,48.34h22.267v-0.83c0-3.815-1.044-6.846-3.131-9.092c-2.088-2.248-4.688-3.371-7.801-3.371
	c-3.309,0-5.97,1.18-7.984,3.54C264.442,40.948,263.325,44.199,263.106,48.34 M294.749,65.26v3.059
	c-2.539,3.247-5.127,5.564-7.764,6.949c-2.637,1.384-5.805,2.077-9.504,2.077c-6.544,0-11.943-2.068-16.197-6.203
	c-4.255-4.136-6.382-9.382-6.382-15.739c0-6.408,2.005-11.805,6.015-16.192c4.012-4.388,8.929-6.581,14.751-6.581
	c4.785,0,8.968,1.696,12.545,5.089c3.576,3.392,5.364,7.437,5.364,12.132v0.906h-30.471v0.566c0,4.507,0.705,8.425,2.115,11.755
	c1.41,3.329,3.47,5.936,6.18,7.817s5.536,2.823,8.479,2.823c2.745,0,5.099-0.552,7.059-1.652
	C288.898,70.965,291.502,68.696,294.749,65.26z"/>
<path fill="#FFFFFF" d="M334.596,32.63v14.502h-2.344c-0.855-3.727-2.479-6.673-4.871-8.837c-2.394-2.165-5.25-3.248-8.57-3.248
	c-3.992,0-7.243,1.627-9.751,4.881c-2.509,3.254-3.764,7.475-3.764,12.66c0,5.729,1.505,10.683,4.514,14.861
	c3.01,4.179,6.596,6.27,10.759,6.27c2.759,0,5.496-0.746,8.213-2.237c2.716-1.492,5.045-3.566,6.986-6.222v3.002
	c-4.444,6.055-10.476,9.083-18.093,9.083c-6.067,0-11.015-1.98-14.843-5.939c-3.826-3.959-5.739-9.104-5.739-15.437
	c0-6.483,2.044-11.994,6.134-16.532s9.021-6.807,14.796-6.807c2.576,0,5.451,0.529,8.625,1.586c1.38,0.453,2.332,0.68,2.857,0.68
	c1.159,0,2.074-0.755,2.747-2.266H334.596"/>
<path fill="#FFFFFF" d="M346.315,19.336h2.344v14.502h14.064v2.417h-14.064v28.268c0,2.946,0.645,5.215,1.933,6.807
	c1.288,1.594,3.122,2.39,5.503,2.39c2.808,0,5.364-1.208,7.673-3.625l1.3,1.32c-3.638,3.953-7.838,5.931-12.599,5.931
	c-3.565,0-6.458-1.159-8.681-3.476c-2.222-2.315-3.333-5.306-3.333-8.969V36.255h-8.202v-2.001
	C338.087,31.409,342.775,26.436,346.315,19.336"/>
</svg>
